<svg xmlns:xlink="http://www.w3.org/1999/xlink" version="1.1" class="highcharts-root" style="font-family: &quot;Lucida Grande&quot;, &quot;Lucida Sans Unicode&quot;, Arial, Helvetica, sans-serif; font-size: 12px;" xmlns="http://www.w3.org/2000/svg" width="500" height="400" viewBox="0 0 500 400"><desc>Created with Highcharts 10.1.0</desc><defs><clipPath id="highcharts-7wcuvlf-89-"><rect x="0" y="0" width="426" height="333" fill="none"></rect></clipPath><clipPath id="highcharts-7wcuvlf-171-"><rect x="0" y="0" width="426" height="333" fill="none"></rect></clipPath></defs><rect fill="#ffffff" class="highcharts-background" x="0" y="0" width="500" height="400" rx="0" ry="0"></rect><rect fill="none" class="highcharts-plot-background" x="64" y="10" width="426" height="333"></rect><g class="highcharts-grid highcharts-xaxis-grid" data-z-index="1"><path fill="none" stroke-dasharray="none" data-z-index="1" class="highcharts-grid-line" d="M 67.5 10 L 67.5 343" opacity="1"></path><path fill="none" stroke-dasharray="none" data-z-index="1" class="highcharts-grid-line" d="M 172.5 10 L 172.5 343" opacity="1"></path><path fill="none" stroke-dasharray="none" data-z-index="1" class="highcharts-grid-line" d="M 276.5 10 L 276.5 343" opacity="1"></path><path fill="none" stroke-dasharray="none" data-z-index="1" class="highcharts-grid-line" d="M 380.5 10 L 380.5 343" opacity="1"></path><path fill="none" stroke-dasharray="none" data-z-index="1" class="highcharts-grid-line" d="M 485.5 10 L 485.5 343" opacity="1"></path></g><g class="highcharts-grid highcharts-yaxis-grid" data-z-index="1"><path fill="none" stroke="#e6e6e6" stroke-width="1" stroke-dasharray="none" data-z-index="1" class="highcharts-grid-line" d="M 64 343.5 L 490 343.5" opacity="1"></path><path fill="none" stroke="#e6e6e6" stroke-width="1" stroke-dasharray="none" data-z-index="1" class="highcharts-grid-line" d="M 64 276.5 L 490 276.5" opacity="1"></path><path fill="none" stroke="#e6e6e6" stroke-width="1" stroke-dasharray="none" data-z-index="1" class="highcharts-grid-line" d="M 64 210.5 L 490 210.5" opacity="1"></path><path fill="none" stroke="#e6e6e6" stroke-width="1" stroke-dasharray="none" data-z-index="1" class="highcharts-grid-line" d="M 64 143.5 L 490 143.5" opacity="1"></path><path fill="none" stroke="#e6e6e6" stroke-width="1" stroke-dasharray="none" data-z-index="1" class="highcharts-grid-line" d="M 64 77.5 L 490 77.5" opacity="1"></path><path fill="none" stroke="#e6e6e6" stroke-width="1" stroke-dasharray="none" data-z-index="1" class="highcharts-grid-line" d="M 64 9.5 L 490 9.5" opacity="1"></path></g><rect fill="none" class="highcharts-plot-border" data-z-index="1" x="64" y="10" width="426" height="333"></rect><g class="highcharts-axis highcharts-xaxis" data-z-index="2"><path fill="none" class="highcharts-tick" stroke="#ccd6eb" stroke-width="1" d="M 67.5 343 L 67.5 353" opacity="1"></path><path fill="none" class="highcharts-tick" stroke="#ccd6eb" stroke-width="1" d="M 172.5 343 L 172.5 353" opacity="1"></path><path fill="none" class="highcharts-tick" stroke="#ccd6eb" stroke-width="1" d="M 276.5 343 L 276.5 353" opacity="1"></path><path fill="none" class="highcharts-tick" stroke="#ccd6eb" stroke-width="1" d="M 380.5 343 L 380.5 353" opacity="1"></path><path fill="none" class="highcharts-tick" stroke="#ccd6eb" stroke-width="1" d="M 485.5 343 L 485.5 353" opacity="1"></path><text x="277" data-z-index="7" text-anchor="middle" transform="translate(0,0)" class="highcharts-axis-title" style="color: black; font-family: Times; font-size: 14px; font-style: italic; font-weight: bold; fill: black;" y="384">x</text><path fill="none" class="highcharts-axis-line" stroke="#ccd6eb" stroke-width="1" data-z-index="7" d="M 64 343.5 L 490 343.5"></path></g><g class="highcharts-axis highcharts-yaxis" data-z-index="2"><text x="25.6796875" data-z-index="7" text-anchor="middle" transform="translate(0,0) rotate(270 25.6796875 176.5)" class="highcharts-axis-title" style="color: black; font-family: Times; font-size: 14px; font-style: italic; font-weight: bold; fill: black;" y="176.5">y</text><path fill="none" class="highcharts-axis-line" data-z-index="7" d="M 64 10 L 64 343"></path></g><g class="highcharts-series-group" data-z-index="3"><g class="highcharts-series highcharts-series-0 highcharts-line-series highcharts-color-0" data-z-index="0.1" opacity="1" transform="translate(64,10) scale(1 1)" clip-path="url(#highcharts-7wcuvlf-171-)"><path fill="none" d="M 4.1764705882353 319.68 L 9.3970588235294 318.348 L 14.617647058824 317.016 L 19.838235294118 315.684 L 25.058823529412 314.352 L 30.279411764706 313.02 L 35.5 311.688 L 40.720588235294 310.356 L 45.941176470588 309.024 L 51.161764705882 307.692 L 56.382352941176 306.36 L 61.602941176471 305.028 L 66.823529411765 303.696 L 72.044117647059 302.364 L 77.264705882353 301.032 L 82.485294117647 299.7 L 87.705882352941 298.368 L 92.926470588235 297.036 L 98.147058823529 295.704 L 103.36764705882 294.372 L 108.58823529412 293.04 L 113.80882352941 291.70799999999997 L 119.02941176471 290.376 L 124.25 289.044 L 129.47058823529 287.712 L 134.69117647059 286.38 L 139.91176470588 285.048 L 145.13235294118 283.716 L 150.35294117647 282.384 L 155.57352941176 281.052 L 160.79411764706 279.72 L 166.01470588235 278.388 L 171.23529411765 277.056 L 176.45588235294 275.724 L 181.67647058824 274.392 L 186.89705882353 273.06 L 192.11764705882 271.728 L 197.33823529412 270.396 L 202.55882352941 269.064 L 207.77941176471 267.73199999999997 L 213 266.4 L 218.22058823529 259.74 L 223.44117647059 253.07999999999998 L 228.66176470588 246.42000000000002 L 233.88235294118 239.76 L 239.10294117647 233.1 L 244.32352941176 226.44 L 249.54411764706 219.78 L 254.76470588235 213.12 L 259.98529411765 206.45999999999998 L 265.20588235294 199.8 L 270.42647058824 193.14 L 275.64705882353 186.48 L 280.86764705882 179.82 L 286.08823529412 173.16 L 291.30882352941 166.5 L 296.52941176471 159.84 L 301.75 153.18 L 306.97058823529 146.52 L 312.19117647059 139.86 L 317.41176470588 133.2 L 322.63235294118 126.53999999999999 L 327.85294117647 119.88 L 333.07352941176 113.22 L 338.29411764706 106.56 L 343.51470588235 99.9 L 348.73529411765 93.24000000000001 L 353.95588235294 86.58000000000001 L 359.17647058824 79.91999999999999 L 364.39705882353 73.25999999999999 L 369.61764705882 66.60000000000002 L 374.83823529412 59.94 L 380.05882352941 53.27999999999997 L 385.27941176471 46.620000000000005 L 390.5 39.95999999999998 L 395.72058823529 33.30000000000001 L 400.94117647059 26.639999999999986 L 406.16176470588 19.980000000000018 L 411.38235294118 13.319999999999993 L 416.60294117647 6.660000000000025 L 421.82352941176 0" class="highcharts-graph" data-z-index="1" stroke="#7cb5ec" stroke-width="2" stroke-linejoin="round" stroke-linecap="round"></path></g><g class="highcharts-markers highcharts-series-0 highcharts-line-series highcharts-color-0" data-z-index="0.1" opacity="1" transform="translate(64,10) scale(1 1)" clip-path="none"></g></g><text x="250" text-anchor="middle" class="highcharts-title" data-z-index="4" style="color: rgb(51, 51, 51); font-size: 18px; fill: rgb(51, 51, 51);" y="24"></text><text x="250" text-anchor="middle" class="highcharts-subtitle" data-z-index="4" style="color: rgb(102, 102, 102); fill: rgb(102, 102, 102);" y="24"></text><text x="10" text-anchor="start" class="highcharts-caption" data-z-index="4" style="color: rgb(102, 102, 102); fill: rgb(102, 102, 102);" y="397"></text><g class="highcharts-axis-labels highcharts-xaxis-labels" data-z-index="7"><text x="68.176470588235" text-anchor="middle" transform="translate(0,0)" style="color: rgb(102, 102, 102); cursor: default; font-size: 11px; fill: rgb(102, 102, 102);" y="362" opacity="1">-4</text><text x="172.58823529412" text-anchor="middle" transform="translate(0,0)" style="color: rgb(102, 102, 102); cursor: default; font-size: 11px; fill: rgb(102, 102, 102);" y="362" opacity="1">-2</text><text x="277" text-anchor="middle" transform="translate(0,0)" style="color: rgb(102, 102, 102); cursor: default; font-size: 11px; fill: rgb(102, 102, 102);" y="362" opacity="1">0</text><text x="381.41176470588" text-anchor="middle" transform="translate(0,0)" style="color: rgb(102, 102, 102); cursor: default; font-size: 11px; fill: rgb(102, 102, 102);" y="362" opacity="1">2</text><text x="485.82352941176" text-anchor="middle" transform="translate(0,0)" style="color: rgb(102, 102, 102); cursor: default; font-size: 11px; fill: rgb(102, 102, 102);" y="362" opacity="1">4</text></g><g class="highcharts-axis-labels highcharts-yaxis-labels" data-z-index="7"><text x="49" text-anchor="end" transform="translate(0,0)" style="color: rgb(102, 102, 102); cursor: default; font-size: 11px; fill: rgb(102, 102, 102);" y="347" opacity="1">-1</text><text x="49" text-anchor="end" transform="translate(0,0)" style="color: rgb(102, 102, 102); cursor: default; font-size: 11px; fill: rgb(102, 102, 102);" y="280" opacity="1">0</text><text x="49" text-anchor="end" transform="translate(0,0)" style="color: rgb(102, 102, 102); cursor: default; font-size: 11px; fill: rgb(102, 102, 102);" y="214" opacity="1">1</text><text x="49" text-anchor="end" transform="translate(0,0)" style="color: rgb(102, 102, 102); cursor: default; font-size: 11px; fill: rgb(102, 102, 102);" y="147" opacity="1">2</text><text x="49" text-anchor="end" transform="translate(0,0)" style="color: rgb(102, 102, 102); cursor: default; font-size: 11px; fill: rgb(102, 102, 102);" y="81" opacity="1">3</text><text x="49" text-anchor="end" transform="translate(0,0)" style="color: rgb(102, 102, 102); cursor: default; font-size: 11px; fill: rgb(102, 102, 102);" y="14" opacity="1">4</text></g></svg>