<svg xmlns:xlink="http://www.w3.org/1999/xlink" version="1.1" class="highcharts-root" style="font-family: &quot;Lucida Grande&quot;, &quot;Lucida Sans Unicode&quot;, Arial, Helvetica, sans-serif; font-size: 12px;" xmlns="http://www.w3.org/2000/svg" width="500" height="400" viewBox="0 0 500 400"><desc>Created with Highcharts 10.1.0</desc><defs><clipPath id="highcharts-3agonyd-89-"><rect x="0" y="0" width="433" height="333" fill="none"></rect></clipPath><clipPath id="highcharts-3agonyd-171-"><rect x="0" y="0" width="433" height="333" fill="none"></rect></clipPath></defs><rect fill="#ffffff" class="highcharts-background" x="0" y="0" width="500" height="400" rx="0" ry="0"></rect><rect fill="none" class="highcharts-plot-background" x="57" y="10" width="433" height="333"></rect><g class="highcharts-grid highcharts-xaxis-grid" data-z-index="1"><path fill="none" stroke-dasharray="none" data-z-index="1" class="highcharts-grid-line" d="M 60.5 10 L 60.5 343" opacity="1"></path><path fill="none" stroke-dasharray="none" data-z-index="1" class="highcharts-grid-line" d="M 166.5 10 L 166.5 343" opacity="1"></path><path fill="none" stroke-dasharray="none" data-z-index="1" class="highcharts-grid-line" d="M 273.5 10 L 273.5 343" opacity="1"></path><path fill="none" stroke-dasharray="none" data-z-index="1" class="highcharts-grid-line" d="M 379.5 10 L 379.5 343" opacity="1"></path><path fill="none" stroke-dasharray="none" data-z-index="1" class="highcharts-grid-line" d="M 485.5 10 L 485.5 343" opacity="1"></path></g><g class="highcharts-grid highcharts-yaxis-grid" data-z-index="1"><path fill="none" stroke="#e6e6e6" stroke-width="1" stroke-dasharray="none" data-z-index="1" class="highcharts-grid-line" d="M 57 343.5 L 490 343.5" opacity="1"></path><path fill="none" stroke="#e6e6e6" stroke-width="1" stroke-dasharray="none" data-z-index="1" class="highcharts-grid-line" d="M 57 260.5 L 490 260.5" opacity="1"></path><path fill="none" stroke="#e6e6e6" stroke-width="1" stroke-dasharray="none" data-z-index="1" class="highcharts-grid-line" d="M 57 177.5 L 490 177.5" opacity="1"></path><path fill="none" stroke="#e6e6e6" stroke-width="1" stroke-dasharray="none" data-z-index="1" class="highcharts-grid-line" d="M 57 93.5 L 490 93.5" opacity="1"></path><path fill="none" stroke="#e6e6e6" stroke-width="1" stroke-dasharray="none" data-z-index="1" class="highcharts-grid-line" d="M 57 9.5 L 490 9.5" opacity="1"></path></g><rect fill="none" class="highcharts-plot-border" data-z-index="1" x="57" y="10" width="433" height="333"></rect><g class="highcharts-axis highcharts-xaxis" data-z-index="2"><path fill="none" class="highcharts-tick" stroke="#ccd6eb" stroke-width="1" d="M 60.5 343 L 60.5 353" opacity="1"></path><path fill="none" class="highcharts-tick" stroke="#ccd6eb" stroke-width="1" d="M 166.5 343 L 166.5 353" opacity="1"></path><path fill="none" class="highcharts-tick" stroke="#ccd6eb" stroke-width="1" d="M 273.5 343 L 273.5 353" opacity="1"></path><path fill="none" class="highcharts-tick" stroke="#ccd6eb" stroke-width="1" d="M 379.5 343 L 379.5 353" opacity="1"></path><path fill="none" class="highcharts-tick" stroke="#ccd6eb" stroke-width="1" d="M 485.5 343 L 485.5 353" opacity="1"></path><text x="273.5" data-z-index="7" text-anchor="middle" transform="translate(0,0)" class="highcharts-axis-title" style="color: black; font-family: Times; font-size: 14px; font-style: italic; font-weight: bold; fill: black;" y="384">x</text><path fill="none" class="highcharts-axis-line" stroke="#ccd6eb" stroke-width="1" data-z-index="7" d="M 57 343.5 L 490 343.5"></path></g><g class="highcharts-axis highcharts-yaxis" data-z-index="2"><text x="25.0390625" data-z-index="7" text-anchor="middle" transform="translate(0,0) rotate(270 25.0390625 176.5)" class="highcharts-axis-title" style="color: black; font-family: Times; font-size: 14px; font-style: italic; font-weight: bold; fill: black;" y="176.5">y</text><path fill="none" class="highcharts-axis-line" data-z-index="7" d="M 57 10 L 57 343"></path></g><g class="highcharts-series-group" data-z-index="3"><g class="highcharts-series highcharts-series-0 highcharts-line-series highcharts-color-0" data-z-index="0.1" opacity="1" transform="translate(57,10) scale(1 1)" clip-path="url(#highcharts-3agonyd-171-)"><path fill="none" d="M 4.2450980392157 333 L 9.5514705882353 333 L 14.857843137255 333 L 20.164215686275 333 L 25.470588235294 333 L 30.776960784314 333 L 36.083333333333 333 L 41.389705882353 333 L 46.696078431373 333 L 52.002450980392 333 L 57.308823529412 333 L 62.615196078431 333 L 67.921568627451 333 L 73.227941176471 333 L 78.53431372549 333 L 83.84068627451 333 L 89.147058823529 333 L 94.453431372549 333 L 99.759803921569 333 L 105.06617647059 333 L 110.37254901961 333 L 115.67892156863 333 L 120.98529411765 333 L 126.29166666667 333 L 131.59803921569 333 L 136.90441176471 333 L 142.21078431373 333 L 147.51715686275 333 L 152.82352941176 333 L 158.12990196078 333 L 163.4362745098 333 L 168.74264705882 333 L 174.04901960784 333 L 179.35539215686 333 L 184.66176470588 333 L 189.9681372549 333 L 195.27450980392 333 L 200.58088235294 333 L 205.88725490196 333 L 211.19362745098 333 L 216.5 333 L 221.80637254902 324.675 L 227.11274509804 316.35 L 232.41911764706 308.025 L 237.72549019608 299.7 L 243.0318627451 291.375 L 248.33823529412 283.05 L 253.64460784314 274.725 L 258.95098039216 266.4 L 264.25735294118 258.075 L 269.5637254902 249.75 L 274.87009803922 241.425 L 280.17647058824 233.1 L 285.48284313725 224.775 L 290.78921568627 216.45 L 296.09558823529 208.125 L 301.40196078431 199.8 L 306.70833333333 191.475 L 312.01470588235 183.15 L 317.32107843137 174.825 L 322.62745098039 166.5 L 327.93382352941 158.175 L 333.24019607843 149.85 L 338.54656862745 141.525 L 343.85294117647 133.2 L 349.15931372549 124.875 L 354.46568627451 116.55000000000001 L 359.77205882353 108.225 L 365.07843137255 99.9 L 370.38480392157 91.57499999999999 L 375.69117647059 83.25 L 380.99754901961 74.92500000000001 L 386.30392156863 66.60000000000002 L 391.61029411765 58.27499999999998 L 396.91666666667 49.94999999999999 L 402.22303921569 41.625 L 407.52941176471 33.30000000000001 L 412.83578431373 24.975000000000023 L 418.14215686275 16.649999999999977 L 423.44852941176 8.324999999999989 L 428.75490196078 0" class="highcharts-graph" data-z-index="1" stroke="#7cb5ec" stroke-width="2" stroke-linejoin="round" stroke-linecap="round"></path></g><g class="highcharts-markers highcharts-series-0 highcharts-line-series highcharts-color-0" data-z-index="0.1" opacity="1" transform="translate(57,10) scale(1 1)" clip-path="none"></g></g><text x="250" text-anchor="middle" class="highcharts-title" data-z-index="4" style="color: rgb(51, 51, 51); font-size: 18px; fill: rgb(51, 51, 51);" y="24"></text><text x="250" text-anchor="middle" class="highcharts-subtitle" data-z-index="4" style="color: rgb(102, 102, 102); fill: rgb(102, 102, 102);" y="24"></text><text x="10" text-anchor="start" class="highcharts-caption" data-z-index="4" style="color: rgb(102, 102, 102); fill: rgb(102, 102, 102);" y="397"></text><g class="highcharts-axis-labels highcharts-xaxis-labels" data-z-index="7"><text x="61.245098039216" text-anchor="middle" transform="translate(0,0)" style="color: rgb(102, 102, 102); cursor: default; font-size: 11px; fill: rgb(102, 102, 102);" y="362" opacity="1">-4</text><text x="167.37254901961" text-anchor="middle" transform="translate(0,0)" style="color: rgb(102, 102, 102); cursor: default; font-size: 11px; fill: rgb(102, 102, 102);" y="362" opacity="1">-2</text><text x="273.5" text-anchor="middle" transform="translate(0,0)" style="color: rgb(102, 102, 102); cursor: default; font-size: 11px; fill: rgb(102, 102, 102);" y="362" opacity="1">0</text><text x="379.62745098039" text-anchor="middle" transform="translate(0,0)" style="color: rgb(102, 102, 102); cursor: default; font-size: 11px; fill: rgb(102, 102, 102);" y="362" opacity="1">2</text><text x="485.75490196078" text-anchor="middle" transform="translate(0,0)" style="color: rgb(102, 102, 102); cursor: default; font-size: 11px; fill: rgb(102, 102, 102);" y="362" opacity="1">4</text></g><g class="highcharts-axis-labels highcharts-yaxis-labels" data-z-index="7"><text x="42" text-anchor="end" transform="translate(0,0)" style="color: rgb(102, 102, 102); cursor: default; font-size: 11px; fill: rgb(102, 102, 102);" y="347" opacity="1">0</text><text x="42" text-anchor="end" transform="translate(0,0)" style="color: rgb(102, 102, 102); cursor: default; font-size: 11px; fill: rgb(102, 102, 102);" y="264" opacity="1">1</text><text x="42" text-anchor="end" transform="translate(0,0)" style="color: rgb(102, 102, 102); cursor: default; font-size: 11px; fill: rgb(102, 102, 102);" y="181" opacity="1">2</text><text x="42" text-anchor="end" transform="translate(0,0)" style="color: rgb(102, 102, 102); cursor: default; font-size: 11px; fill: rgb(102, 102, 102);" y="97" opacity="1">3</text><text x="42" text-anchor="end" transform="translate(0,0)" style="color: rgb(102, 102, 102); cursor: default; font-size: 11px; fill: rgb(102, 102, 102);" y="14" opacity="1">4</text></g></svg>