<svg xmlns:xlink="http://www.w3.org/1999/xlink" version="1.1" class="highcharts-root" style="font-family: &quot;Lucida Grande&quot;, &quot;Lucida Sans Unicode&quot;, Arial, Helvetica, sans-serif; font-size: 12px;" xmlns="http://www.w3.org/2000/svg" width="500" height="400" viewBox="0 0 500 400"><desc>Created with Highcharts 10.1.0</desc><defs><clipPath id="highcharts-suqjzui-89-"><rect x="0" y="0" width="422" height="333" fill="none"></rect></clipPath><clipPath id="highcharts-suqjzui-171-"><rect x="0" y="0" width="422" height="333" fill="none"></rect></clipPath></defs><rect fill="#ffffff" class="highcharts-background" x="0" y="0" width="500" height="400" rx="0" ry="0"></rect><rect fill="none" class="highcharts-plot-background" x="68" y="10" width="422" height="333"></rect><g class="highcharts-grid highcharts-xaxis-grid" data-z-index="1"><path fill="none" stroke-dasharray="none" data-z-index="1" class="highcharts-grid-line" d="M 71.5 10 L 71.5 343" opacity="1"></path><path fill="none" stroke-dasharray="none" data-z-index="1" class="highcharts-grid-line" d="M 175.5 10 L 175.5 343" opacity="1"></path><path fill="none" stroke-dasharray="none" data-z-index="1" class="highcharts-grid-line" d="M 278.5 10 L 278.5 343" opacity="1"></path><path fill="none" stroke-dasharray="none" data-z-index="1" class="highcharts-grid-line" d="M 381.5 10 L 381.5 343" opacity="1"></path><path fill="none" stroke-dasharray="none" data-z-index="1" class="highcharts-grid-line" d="M 485.5 10 L 485.5 343" opacity="1"></path></g><g class="highcharts-grid highcharts-yaxis-grid" data-z-index="1"><path fill="none" stroke="#e6e6e6" stroke-width="1" stroke-dasharray="none" data-z-index="1" class="highcharts-grid-line" d="M 68 343.5 L 490 343.5" opacity="1"></path><path fill="none" stroke="#e6e6e6" stroke-width="1" stroke-dasharray="none" data-z-index="1" class="highcharts-grid-line" d="M 68 276.5 L 490 276.5" opacity="1"></path><path fill="none" stroke="#e6e6e6" stroke-width="1" stroke-dasharray="none" data-z-index="1" class="highcharts-grid-line" d="M 68 210.5 L 490 210.5" opacity="1"></path><path fill="none" stroke="#e6e6e6" stroke-width="1" stroke-dasharray="none" data-z-index="1" class="highcharts-grid-line" d="M 68 143.5 L 490 143.5" opacity="1"></path><path fill="none" stroke="#e6e6e6" stroke-width="1" stroke-dasharray="none" data-z-index="1" class="highcharts-grid-line" d="M 68 77.5 L 490 77.5" opacity="1"></path><path fill="none" stroke="#e6e6e6" stroke-width="1" stroke-dasharray="none" data-z-index="1" class="highcharts-grid-line" d="M 68 9.5 L 490 9.5" opacity="1"></path></g><rect fill="none" class="highcharts-plot-border" data-z-index="1" x="68" y="10" width="422" height="333"></rect><g class="highcharts-axis highcharts-xaxis" data-z-index="2"><path fill="none" class="highcharts-tick" stroke="#ccd6eb" stroke-width="1" d="M 71.5 343 L 71.5 353" opacity="1"></path><path fill="none" class="highcharts-tick" stroke="#ccd6eb" stroke-width="1" d="M 175.5 343 L 175.5 353" opacity="1"></path><path fill="none" class="highcharts-tick" stroke="#ccd6eb" stroke-width="1" d="M 278.5 343 L 278.5 353" opacity="1"></path><path fill="none" class="highcharts-tick" stroke="#ccd6eb" stroke-width="1" d="M 381.5 343 L 381.5 353" opacity="1"></path><path fill="none" class="highcharts-tick" stroke="#ccd6eb" stroke-width="1" d="M 485.5 343 L 485.5 353" opacity="1"></path><text x="279" data-z-index="7" text-anchor="middle" transform="translate(0,0)" class="highcharts-axis-title" style="color: black; font-family: Times; font-size: 14px; font-style: italic; font-weight: bold; fill: black;" y="384">x</text><path fill="none" class="highcharts-axis-line" stroke="#ccd6eb" stroke-width="1" data-z-index="7" d="M 68 343.5 L 490 343.5"></path></g><g class="highcharts-axis highcharts-yaxis" data-z-index="2"><text x="25.6015625" data-z-index="7" text-anchor="middle" transform="translate(0,0) rotate(270 25.6015625 176.5)" class="highcharts-axis-title" style="color: black; font-family: Times; font-size: 14px; font-style: italic; font-weight: bold; fill: black;" y="176.5">y</text><path fill="none" class="highcharts-axis-line" data-z-index="7" d="M 68 10 L 68 343"></path></g><g class="highcharts-series-group" data-z-index="3"><g class="highcharts-series highcharts-series-0 highcharts-line-series highcharts-color-0" data-z-index="0.1" opacity="1" transform="translate(68,10) scale(1 1)" clip-path="url(#highcharts-suqjzui-171-)"><path fill="none" d="M 4.1372549019608 327.0105920826235 L 9.3088235294118 326.3931781905522 L 14.480392156863 325.7135367782686 L 19.651960784314 324.9657018679162 L 24.823529411765 324.1432011389037 L 29.995098039216 323.2390271597983 L 35.166666666667 322.245610255416 L 40.338235294118 321.154793972212 L 45.509803921569 319.957814308677 L 50.68137254902 318.645284104618 L 55.852941176471 317.20718423187 L 61.024509803922 315.632863494887 L 66.196078431373 313.911049425677 L 71.367647058824 312.02987243302 L 76.539215686275 309.976906025666 L 81.710784313725 307.739226052926 L 86.882352941176 305.303492067524 L 92.053921568627 302.656053982053 L 97.225490196078 299.783087123145 L 102.39705882353 296.670758541861 L 107.56862745098 293.30542696663497 L 112.74019607843 289.673878037122 L 117.91176470588 285.763595388138 L 123.08333333333 281.563066727183 L 128.25490196078 277.062122249597 L 133.42647058824 272.252300572483 L 138.59803921569 267.127234890008 L 143.76960784314 261.683049353172 L 148.94117647059 255.918752905173 L 154.11274509804 249.836615163174 L 159.28431372549 243.442506683792 L 164.45588235294 236.74618437412602 L 169.62745098039 229.76150221549 L 174.79901960784 222.506528132 L 179.97058823529 215.00354997319 L 185.14215686275 207.27895729022 L 190.3137254902 199.36299081745 L 195.48529411765 191.28935809828 L 200.6568627451 183.09472110506 L 205.82843137255 174.81806943049 L 211 166.5 L 216.17156862745 158.18193056951 L 221.3431372549 149.90527889494 L 226.51470588235 141.71064190172 L 231.6862745098 133.63700918255 L 236.85784313725 125.72104270978 L 242.02941176471 117.99645002681001 L 247.20098039216 110.493471868 L 252.37254901961 103.23849778451 L 257.54411764706 96.25381562587 L 262.71568627451 89.55749331621001 L 267.88725490196 83.16338483683 L 273.05882352941 77.08124709482999 L 278.23039215686 71.31695064682998 L 283.40196078431 65.87276510998998 L 288.57352941176 60.74769942751999 L 293.74509803922 55.93787775039999 L 298.91666666667 51.43693327282 L 304.08823529412 47.236404611859996 L 309.25980392157 43.326121962879995 L 314.43137254902 39.69457303336998 L 319.60294117647 36.32924145814002 L 324.77450980392 33.21691287686002 L 329.94607843137 30.343946017949975 L 335.11764705882 27.696507932480017 L 340.28921568627 25.260773947069993 L 345.46078431373 23.02309397432998 L 350.63235294118 20.97012756698001 L 355.80392156863 19.088950574319995 L 360.97549019608 17.36713650511001 L 366.14705882353 15.792815768130026 L 371.31862745098 14.354715895380025 L 376.49019607843 13.042185691320014 L 381.66176470588 11.845206027790027 L 386.83333333333 10.75438974458001 L 392.00490196078 9.760972840199997 L 397.17647058824 8.856798861100003 L 402.34803921569 8.034298132079982 L 407.51960784314 7.286463221730003 L 412.69117647059 6.606821809450025 L 417.86274509804 5.989407917379992" class="highcharts-graph" data-z-index="1" stroke="#7cb5ec" stroke-width="2" stroke-linejoin="round" stroke-linecap="round"></path></g><g class="highcharts-markers highcharts-series-0 highcharts-line-series highcharts-color-0" data-z-index="0.1" opacity="1" transform="translate(68,10) scale(1 1)" clip-path="none"></g></g><text x="250" text-anchor="middle" class="highcharts-title" data-z-index="4" style="color: rgb(51, 51, 51); font-size: 18px; fill: rgb(51, 51, 51);" y="24"></text><text x="250" text-anchor="middle" class="highcharts-subtitle" data-z-index="4" style="color: rgb(102, 102, 102); fill: rgb(102, 102, 102);" y="24"></text><text x="10" text-anchor="start" class="highcharts-caption" data-z-index="4" style="color: rgb(102, 102, 102); fill: rgb(102, 102, 102);" y="397"></text><g class="highcharts-axis-labels highcharts-xaxis-labels" data-z-index="7"><text x="72.137254901961" text-anchor="middle" transform="translate(0,0)" style="color: rgb(102, 102, 102); cursor: default; font-size: 11px; fill: rgb(102, 102, 102);" y="362" opacity="1">-4</text><text x="175.56862745098" text-anchor="middle" transform="translate(0,0)" style="color: rgb(102, 102, 102); cursor: default; font-size: 11px; fill: rgb(102, 102, 102);" y="362" opacity="1">-2</text><text x="279" text-anchor="middle" transform="translate(0,0)" style="color: rgb(102, 102, 102); cursor: default; font-size: 11px; fill: rgb(102, 102, 102);" y="362" opacity="1">0</text><text x="382.43137254902" text-anchor="middle" transform="translate(0,0)" style="color: rgb(102, 102, 102); cursor: default; font-size: 11px; fill: rgb(102, 102, 102);" y="362" opacity="1">2</text><text x="485.86274509804" text-anchor="middle" transform="translate(0,0)" style="color: rgb(102, 102, 102); cursor: default; font-size: 11px; fill: rgb(102, 102, 102);" y="362" opacity="1">4</text></g><g class="highcharts-axis-labels highcharts-yaxis-labels" data-z-index="7"><text x="53" text-anchor="end" transform="translate(0,0)" style="color: rgb(102, 102, 102); cursor: default; font-size: 11px; fill: rgb(102, 102, 102);" y="347" opacity="1">0</text><text x="53" text-anchor="end" transform="translate(0,0)" style="color: rgb(102, 102, 102); cursor: default; font-size: 11px; fill: rgb(102, 102, 102);" y="280" opacity="1">0.2</text><text x="53" text-anchor="end" transform="translate(0,0)" style="color: rgb(102, 102, 102); cursor: default; font-size: 11px; fill: rgb(102, 102, 102);" y="214" opacity="1">0.4</text><text x="53" text-anchor="end" transform="translate(0,0)" style="color: rgb(102, 102, 102); cursor: default; font-size: 11px; fill: rgb(102, 102, 102);" y="147" opacity="1">0.6</text><text x="53" text-anchor="end" transform="translate(0,0)" style="color: rgb(102, 102, 102); cursor: default; font-size: 11px; fill: rgb(102, 102, 102);" y="81" opacity="1">0.8</text><text x="53" text-anchor="end" transform="translate(0,0)" style="color: rgb(102, 102, 102); cursor: default; font-size: 11px; fill: rgb(102, 102, 102);" y="14" opacity="1">1</text></g></svg>