<svg xmlns:xlink="http://www.w3.org/1999/xlink" version="1.1" class="highcharts-root" style="font-family: &quot;Lucida Grande&quot;, &quot;Lucida Sans Unicode&quot;, Arial, Helvetica, sans-serif; font-size: 12px;" xmlns="http://www.w3.org/2000/svg" width="500" height="400" viewBox="0 0 500 400"><desc>Created with Highcharts 10.1.0</desc><defs><clipPath id="highcharts-cnytptp-89-"><rect x="0" y="0" width="416" height="333" fill="none"></rect></clipPath><clipPath id="highcharts-cnytptp-171-"><rect x="0" y="0" width="416" height="333" fill="none"></rect></clipPath></defs><rect fill="#ffffff" class="highcharts-background" x="0" y="0" width="500" height="400" rx="0" ry="0"></rect><rect fill="none" class="highcharts-plot-background" x="74" y="10" width="416" height="333"></rect><g class="highcharts-grid highcharts-xaxis-grid" data-z-index="1"><path fill="none" stroke-dasharray="none" data-z-index="1" class="highcharts-grid-line" d="M 77.5 10 L 77.5 343" opacity="1"></path><path fill="none" stroke-dasharray="none" data-z-index="1" class="highcharts-grid-line" d="M 179.5 10 L 179.5 343" opacity="1"></path><path fill="none" stroke-dasharray="none" data-z-index="1" class="highcharts-grid-line" d="M 281.5 10 L 281.5 343" opacity="1"></path><path fill="none" stroke-dasharray="none" data-z-index="1" class="highcharts-grid-line" d="M 383.5 10 L 383.5 343" opacity="1"></path><path fill="none" stroke-dasharray="none" data-z-index="1" class="highcharts-grid-line" d="M 485.5 10 L 485.5 343" opacity="1"></path></g><g class="highcharts-grid highcharts-yaxis-grid" data-z-index="1"><path fill="none" stroke="#e6e6e6" stroke-width="1" stroke-dasharray="none" data-z-index="1" class="highcharts-grid-line" d="M 74 343.5 L 490 343.5" opacity="1"></path><path fill="none" stroke="#e6e6e6" stroke-width="1" stroke-dasharray="none" data-z-index="1" class="highcharts-grid-line" d="M 74 260.5 L 490 260.5" opacity="1"></path><path fill="none" stroke="#e6e6e6" stroke-width="1" stroke-dasharray="none" data-z-index="1" class="highcharts-grid-line" d="M 74 177.5 L 490 177.5" opacity="1"></path><path fill="none" stroke="#e6e6e6" stroke-width="1" stroke-dasharray="none" data-z-index="1" class="highcharts-grid-line" d="M 74 93.5 L 490 93.5" opacity="1"></path><path fill="none" stroke="#e6e6e6" stroke-width="1" stroke-dasharray="none" data-z-index="1" class="highcharts-grid-line" d="M 74 9.5 L 490 9.5" opacity="1"></path></g><rect fill="none" class="highcharts-plot-border" data-z-index="1" x="74" y="10" width="416" height="333"></rect><g class="highcharts-axis highcharts-xaxis" data-z-index="2"><path fill="none" class="highcharts-tick" stroke="#ccd6eb" stroke-width="1" d="M 77.5 343 L 77.5 353" opacity="1"></path><path fill="none" class="highcharts-tick" stroke="#ccd6eb" stroke-width="1" d="M 179.5 343 L 179.5 353" opacity="1"></path><path fill="none" class="highcharts-tick" stroke="#ccd6eb" stroke-width="1" d="M 281.5 343 L 281.5 353" opacity="1"></path><path fill="none" class="highcharts-tick" stroke="#ccd6eb" stroke-width="1" d="M 383.5 343 L 383.5 353" opacity="1"></path><path fill="none" class="highcharts-tick" stroke="#ccd6eb" stroke-width="1" d="M 485.5 343 L 485.5 353" opacity="1"></path><text x="282" data-z-index="7" text-anchor="middle" transform="translate(0,0)" class="highcharts-axis-title" style="color: black; font-family: Times; font-size: 14px; font-style: italic; font-weight: bold; fill: black;" y="384">x</text><path fill="none" class="highcharts-axis-line" stroke="#ccd6eb" stroke-width="1" data-z-index="7" d="M 74 343.5 L 490 343.5"></path></g><g class="highcharts-axis highcharts-yaxis" data-z-index="2"><text x="25.2421875" data-z-index="7" text-anchor="middle" transform="translate(0,0) rotate(270 25.2421875 176.5)" class="highcharts-axis-title" style="color: black; font-family: Times; font-size: 14px; font-style: italic; font-weight: bold; fill: black;" y="176.5">y</text><path fill="none" class="highcharts-axis-line" data-z-index="7" d="M 74 10 L 74 343"></path></g><g class="highcharts-series-group" data-z-index="3"><g class="highcharts-series highcharts-series-0 highcharts-line-series highcharts-color-0" data-z-index="0.1" opacity="1" transform="translate(74,10) scale(1 1)" clip-path="url(#highcharts-cnytptp-171-)"><path fill="none" d="M 4.078431372549 332.88832840655465 L 9.1764705882353 332.8636141340597 L 14.274509803922 332.8334330313425 L 19.372549019608 332.7965771733084 L 24.470588235294 332.75157239833237 L 29.56862745098 332.6966199522646 L 34.666666666667 332.6295255010575 L 39.764705882353 332.54761285650716 L 44.862745098039 332.44761924030195 L 49.960784313725 332.3255683104464 L 55.058823529412 332.17661648884064 L 60.156862745098 331.9948673638721 L 65.254901960784 331.7731481134878 L 70.352941176471 331.5027410374066 L 75.450980392157 331.173062466483 L 80.549019607843 330.7712806422131 L 85.647058823529 330.2818638059978 L 90.745098039216 329.6860499783209 L 95.843137254902 328.9612311502367 L 100.94117647059 328.0802474461401 L 106.03921568627 327.0105920826235 L 111.13725490196 325.7135367782686 L 116.23529411765 324.1432011389037 L 121.33333333333 322.245610255416 L 126.43137254902 319.957814308677 L 131.52941176471 317.20718423187 L 136.62745098039 313.911049425677 L 141.72549019608 309.976906025666 L 146.82352941176 305.303492067524 L 151.92156862745 299.783087123145 L 157.01960784314 293.30542696663497 L 162.11764705882 285.763595388138 L 167.21568627451 277.062122249597 L 172.3137254902 267.127234890008 L 177.41176470588 255.918752905173 L 182.50980392157 243.442506683792 L 187.60784313725 229.76150221549 L 192.70588235294 215.00354997319 L 197.80392156863 199.36299081745 L 202.90196078431 183.09472110506 L 208 166.5 L 213.09803921569 149.90527889494 L 218.19607843137 133.63700918255 L 223.29411764706 117.99645002681001 L 228.39215686275 103.23849778451 L 233.49019607843 89.55749331621001 L 238.58823529412 77.08124709482999 L 243.6862745098 65.87276510998998 L 248.78431372549 55.93787775039999 L 253.88235294118 47.236404611859996 L 258.98039215686 39.69457303336998 L 264.07843137255 33.21691287686002 L 269.17647058824 27.696507932480017 L 274.27450980392 23.02309397432998 L 279.37254901961 19.088950574319995 L 284.47058823529 15.792815768130026 L 289.56862745098 13.042185691320014 L 294.66666666667 10.75438974458001 L 299.76470588235 8.856798861100003 L 304.86274509804 7.286463221730003 L 309.96078431373 5.989407917379992 L 315.05882352941 4.9197525538600075 L 320.1568627451 4.038768849760004 L 325.25490196078 3.31395002168 L 330.35294117647 2.71813619400001 L 335.45098039216 2.2287193577899984 L 340.54901960784 1.8269375335199811 L 345.64705882353 1.4972589625900241 L 350.74509803922 1.226851886510019 L 355.8431372549 1.0051326361299857 L 360.94117647059 0.8233835111599888 L 366.03921568627 0.6744316895499765 L 371.13725490196 0.5523807596999859 L 376.23529411765 0.4523871434900002 L 381.33333333333 0.3704744989399842 L 386.43137254902 0.3033800477400064 L 391.52941176471 0.24842760167001643 L 396.62745098039 0.20342282668997314 L 401.72549019608 0.16656696865999265 L 406.82352941176 0.13638586593998525 L 411.92156862745 0.1116715934500121" class="highcharts-graph" data-z-index="1" stroke="#7cb5ec" stroke-width="2" stroke-linejoin="round" stroke-linecap="round"></path></g><g class="highcharts-markers highcharts-series-0 highcharts-line-series highcharts-color-0" data-z-index="0.1" opacity="1" transform="translate(74,10) scale(1 1)" clip-path="none"></g></g><text x="250" text-anchor="middle" class="highcharts-title" data-z-index="4" style="color: rgb(51, 51, 51); font-size: 18px; fill: rgb(51, 51, 51);" y="24"></text><text x="250" text-anchor="middle" class="highcharts-subtitle" data-z-index="4" style="color: rgb(102, 102, 102); fill: rgb(102, 102, 102);" y="24"></text><text x="10" text-anchor="start" class="highcharts-caption" data-z-index="4" style="color: rgb(102, 102, 102); fill: rgb(102, 102, 102);" y="397"></text><g class="highcharts-axis-labels highcharts-xaxis-labels" data-z-index="7"><text x="78.078431372549" text-anchor="middle" transform="translate(0,0)" style="color: rgb(102, 102, 102); cursor: default; font-size: 11px; fill: rgb(102, 102, 102);" y="362" opacity="1">-4</text><text x="180.03921568627" text-anchor="middle" transform="translate(0,0)" style="color: rgb(102, 102, 102); cursor: default; font-size: 11px; fill: rgb(102, 102, 102);" y="362" opacity="1">-2</text><text x="282" text-anchor="middle" transform="translate(0,0)" style="color: rgb(102, 102, 102); cursor: default; font-size: 11px; fill: rgb(102, 102, 102);" y="362" opacity="1">0</text><text x="383.96078431373" text-anchor="middle" transform="translate(0,0)" style="color: rgb(102, 102, 102); cursor: default; font-size: 11px; fill: rgb(102, 102, 102);" y="362" opacity="1">2</text><text x="485.92156862745" text-anchor="middle" transform="translate(0,0)" style="color: rgb(102, 102, 102); cursor: default; font-size: 11px; fill: rgb(102, 102, 102);" y="362" opacity="1">4</text></g><g class="highcharts-axis-labels highcharts-yaxis-labels" data-z-index="7"><text x="59" text-anchor="end" transform="translate(0,0)" style="color: rgb(102, 102, 102); cursor: default; font-size: 11px; fill: rgb(102, 102, 102);" y="347" opacity="1">-1</text><text x="59" text-anchor="end" transform="translate(0,0)" style="color: rgb(102, 102, 102); cursor: default; font-size: 11px; fill: rgb(102, 102, 102);" y="264" opacity="1">-0.5</text><text x="59" text-anchor="end" transform="translate(0,0)" style="color: rgb(102, 102, 102); cursor: default; font-size: 11px; fill: rgb(102, 102, 102);" y="181" opacity="1">0</text><text x="59" text-anchor="end" transform="translate(0,0)" style="color: rgb(102, 102, 102); cursor: default; font-size: 11px; fill: rgb(102, 102, 102);" y="97" opacity="1">0.5</text><text x="59" text-anchor="end" transform="translate(0,0)" style="color: rgb(102, 102, 102); cursor: default; font-size: 11px; fill: rgb(102, 102, 102);" y="14" opacity="1">1</text></g></svg>